<svg id="visual" viewBox="0 0 900 600" width="900" height="600"
  xmlns="http://www.w3.org/2000/svg"
  xmlns:xlink="http://www.w3.org/1999/xlink" version="1.1">
  <rect x="0" y="0" width="900" height="600" fill="#FFFFFF"></rect>
  <g transform="translate(1019.1067525426693 586.8258395710907)">
    <path d="M255.7 -369.7C327.9 -299.4 380.8 -220.1 400.4 -135.8C419.9 -51.5 406.1 38 393.8 144C381.5 250 370.6 372.6 305.2 443.5C239.8 514.4 119.9 533.7 -5.3 541C-130.5 548.3 -261 543.5 -329.9 473.8C-398.9 404 -406.3 269.2 -471.8 136.9C-537.3 4.6 -661 -125.2 -647.3 -223.6C-633.6 -322.1 -482.5 -389.2 -351.8 -440.5C-221 -491.9 -110.5 -527.4 -9.4 -514.5C91.7 -501.5 183.4 -440.1 255.7 -369.7" fill="#01a298"></path>
  </g>
</svg>