<svg width="821" height="499" viewBox="0 0 821 499" fill="none" xmlns="http://www.w3.org/2000/svg">
<path d="M1452.66 5.26837C1548.86 41.4684 1516.26 275.668 1552.26 495.568C1588.36 715.368 1693.06 920.768 1611.76 978.868C1530.56 1036.87 1263.46 947.668 1096.06 913.668C928.661 879.768 861.061 901.268 717.161 934.568C573.261 967.868 353.261 1012.97 204.361 931.568C55.4611 850.168 -22.2389 642.168 5.66106 447.368C33.5611 252.568 166.961 70.9684 334.761 47.3684C502.461 23.7684 704.561 158.168 918.061 144.568C1131.56 130.868 1356.56 -30.9316 1452.66 5.26837Z" fill="#2C396A"/>
<path d="M1458.61 14.2661C1554.81 50.4661 1522.21 284.666 1558.21 504.566C1594.31 724.366 1699.01 929.766 1617.71 987.866C1536.51 1045.87 1269.41 956.666 1102.01 922.666C934.611 888.766 867.01 910.266 723.11 943.566C579.21 976.866 359.21 1021.97 210.31 940.566C61.4105 859.166 -16.2895 651.166 11.6105 456.366C39.5105 261.566 172.91 79.9662 340.71 56.3662C508.41 32.7662 710.51 167.166 924.01 153.566C1137.51 139.866 1362.51 -21.9339 1458.61 14.2661Z" fill="#01A298"/>
</svg>
