<svg width="821" height="499" viewBox="0 0 821 499" fill="none" xmlns="http://www.w3.org/2000/svg">
<path d="M1452.66 5.26837C1548.86 41.4684 1516.26 275.668 1552.26 495.568C1588.36 715.368 1693.06 920.768 1611.76 978.868C1530.56 1036.87 1263.46 947.668 1096.06 913.668C928.661 879.768 861.061 901.268 717.161 934.568C573.261 967.868 353.261 1012.97 204.361 931.568C55.4611 850.168 -22.2389 642.168 5.66106 447.368C33.5611 252.568 166.961 70.9684 334.761 47.3684C502.461 23.7684 704.561 158.168 918.061 144.568C1131.56 130.868 1356.56 -30.9316 1452.66 5.26837Z" fill="#2C396A"/>
<path d="M1465.61 24.2661C1561.81 60.4661 1529.21 294.666 1565.21 514.566C1601.31 734.366 1706.01 939.766 1624.71 997.866C1543.51 1055.87 1276.41 966.666 1109.01 932.666C941.611 898.766 874.01 920.266 730.11 953.566C586.21 986.866 366.21 1031.97 217.31 950.566C68.4105 869.166 -9.28954 661.166 18.6105 466.366C46.5105 271.566 179.91 89.9662 347.71 66.3662C515.41 42.7662 717.51 177.166 931.01 163.566C1144.51 149.866 1369.51 -11.9339 1465.61 24.2661Z" fill="#01A298"/>
</svg>
